#!OML:ASF I:\Actors\actors\Patient Classification 1\Patient 1\Session 1\Subject1.ASF
:FULLY-SPECIFIED
:DEGREES
577
root 0.358647 17.6706 8.63744 12.7309 20.8568 -9.31219
lowerback 5.77123 1.08555 5.88681
upperback -8.20274 2.43766 2.12872
thorax -11.9912 0.787665 -1.37231
lowerneck -14.6809 -4.20146 0.774208
upperneck 26.0238 -7.21438 3.95044
head 10.9605 -2.68828 0.313212
rclavicle -2.99544e-014 6.06293e-014
rhumerus 3.4281 22.2926 -71.3652
rradius 128.099
rwrist 10.8499
rhand 38.674 -62.9967
rfingers 7.12502
rthumb 61.2872 -75.3508
lclavicle -2.99544e-014 6.06293e-014
lhumerus -3.68588 -6.6209 85.4964
lradius 96.346
lwrist -2.3226
lhand 62.3539 16.1343
lfingers 7.12502
lthumb 74.9418 -24.8437
rfemur -3.30826 24.5968 26.0804
rtibia -0.394228
rfoot -31.531 -43.3899
rtoes 26.0288
lfemur -15.9604 -30.8769 -0.237731
ltibia 1.66945
lfoot -3.21566 27.1698
ltoes -15.3061
578
root 0.329545 17.6758 8.66563 12.5838 21.5505 -9.35342
lowerback 5.8728 1.13798 5.54682
upperback -8.19813 2.46326 1.99125
thorax -12.0479 0.82122 -1.33954
lowerneck -14.5194 -4.36614 0.587869
upperneck 25.7548 -7.4531 4.23313
head 10.854 -2.79132 0.417549
rclavicle -2.54506e-014 1.82882e-014
rhumerus 5.84211 21.734 -70.0635
rradius 127.632
rwrist 10.786
rhand 38.5969 -62.8229
rfingers 7.12502
rthumb 61.2222 -75.2527
lclavicle -2.54506e-014 1.82882e-014
lhumerus -3.85826 -6.80864 85.4842
lradius 96.7519
lwrist -1.56211
lhand 62.1143 16.8425
lfingers 7.12502
lthumb 74.9231 -23.2481
rfemur -3.15198 24.0951 26.3668
rtibia -0.321735
rfoot -31.9852 -43.2619
rtoes 26.5563
lfemur -16.106 -31.3337 0.0522431
ltibia 1.70043
lfoot -3.06302 27.062
ltoes -15.6439
579
root 0.302345 17.6774 8.68877 12.3384 22.308 -9.61621
lowerback 6.06651 1.16946 5.50005
upperback -8.17083 2.50388 1.88827
thorax -12.1292 0.837062 -1.43713
lowerneck -14.503 -4.44772 0.319787
upperneck 25.484 -7.59224 4.64721
head 10.7844 -2.83841 0.592042
rclavicle -5.0659e-014 -3.04141e-014
rhumerus 8.04191 21.3032 -68.9532
rradius 127.019
rwrist 10.6729
rhand 38.842 -62.6796
rfingers 7.12502
rthumb 61.4285 -74.8673
lclavicle -5.0659e-014 -3.04141e-014
lhumerus -3.92393 -6.98335 85.3433
lradius 97.1361
lwrist -1.28573
lhand 62.156 16.5825
lfingers 7.12502
lthumb 74.9266 -23.6624
rfemur -2.96374 23.3502 26.9055
rtibia -0.306409
rfoot -32.0383 -43.1024
rtoes 26.6038
lfemur -16.2448 -31.3836 0.490625
ltibia 1.76135
lfoot -2.92963 26.5194
ltoes -16.1743
580
root 0.273522 17.6786 8.71197 12.1722 23.0449 -9.85185
lowerback 6.32044 1.23035 5.52016
upperback -8.21674 2.58786 1.66089
thorax -12.3217 0.856132 -1.71687
lowerneck -14.5626 -4.50598 0.197092
upperneck 25.3087 -7.73707 5.03933
head 10.7602 -2.87186 0.731248
rclavicle 2.31211e-014 -1.78906e-014
rhumerus 9.7956 20.7954 -68.2748
rradius 126.373
rwrist 10.7552
rhand 39.6551 -62.1747
rfingers 7.12502
rthumb 62.1087 -73.5325
lclavicle 2.31211e-014 -1.78906e-014
lhumerus -4.03207 -7.30243 85.0147
lradius 97.5022
lwrist -1.15585
lhand 61.9298 16.0813
lfingers 7.12502
lthumb 74.9062 -23.3277
rfemur -2.85455 22.7474 27.3863
rtibia -0.306557
rfoot -32.1719 -43.0452
rtoes 26.7424
lfemur -16.5149 -31.4289 0.966882
ltibia 1.90036
lfoot -3.02772 26.0301
ltoes -16.2434
581
root 0.247261 17.6796 8.73721 12.0505 23.7021 -10.0889
lowerback 6.35431 1.33447 5.39719
upperback -8.18282 2.701 1.5284
thorax -12.2915 0.915463 -1.81199
lowerneck -14.6102 -4.50601 0.185375
upperneck 24.996 -7.75658 5.21261
head 10.6637 -2.8698 0.791607
rclavicle -2.51338e-014 -4.13472e-014
rhumerus 11.7485 20.5506 -67.4377
rradius 125.811
rwrist 10.6855
rhand 39.9323 -61.9755
rfingers 7.12502
rthumb 62.339 -73.0408
lclavicle -2.51338e-014 -4.13472e-014
lhumerus -3.98175 -7.25325 85.005
lradius 97.7305
lwrist -1.15374
lhand 61.9241 15.8148
lfingers 7.12502
lthumb 74.9057 -23.5731
rfemur -2.77185 22.3066 27.8414
rtibia -0.324671
rfoot -32.4358 -43.0174
rtoes 27.1157
lfemur -16.7943 -31.7017 1.50057
ltibia 1.98906
lfoot -3.11087 25.857
ltoes -16.2121
582
root 0.224894 17.6798 8.76248 12.0105 24.313 -10.312
lowerback 6.39566 1.49223 5.40328
upperback -8.22313 2.89381 1.26594
thorax -12.335 0.990658 -2.13434
lowerneck -14.5991 -4.48528 0.329678
upperneck 24.6637 -7.79323 5.4263
head 10.5461 -2.85797 0.83926
rclavicle -4.88265e-014 -7.95139e-016
rhumerus 13.5861 20.4789 -66.7112
rradius 125.373
rwrist 10.6057
rhand 39.2525 -62.3324
rfingers 7.12502
rthumb 61.7727 -74.1065
lclavicle -4.88265e-014 -7.95139e-016
lhumerus -3.9968 -7.23258 84.9943
lradius 97.9134
lwrist -1.11132
lhand 62.2185 15.9801
lfingers 7.12502
lthumb 74.9317 -24.4963
rfemur -2.79154 21.8762 28.2293
rtibia -0.322712
rfoot -32.7222 -42.9381
rtoes 27.4642
lfemur -17.1264 -31.9256 2.05878
ltibia 2.00806
lfoot -2.94511 25.667
ltoes -16.8939
